<svg width="36" height="36" viewBox="0 0 36 36" fill="none" xmlns="http://www.w3.org/2000/svg">
<path d="M36 18C36 24.6774 32.3641 30.5055 26.964 33.6127L24 26.2212L25.7499 20.7477V26.1562L30.375 29.5312V14.2277L30.4922 14.0625H30.375V9.5625L27.2812 11.25L25.178 14.0625H22L20.5975 20.1877L18.6946 22.7323L16.5 20.1877L15 14.0625H12.2783L10.4062 11.25L6.1875 9.5625V29.5312L10.8468 26.1562V19.8828L12.6069 26.3826L9.97722 34.1176C4.06269 31.1679 0 25.0584 0 18C0 8.05888 8.05888 0 18 0C27.9411 0 36 8.05888 36 18Z" fill="#F7F7F7"/>
<path d="M18.6238 29.7315L22.428 35.4513C21.0114 35.8096 19.5279 36 18 36C16.7998 36 15.627 35.8825 14.4925 35.6585L18.6238 29.7315Z" fill="#F7F7F7"/>
</svg>
